<?xml version="1.0" standalone="no"?><!DOCTYPE svg PUBLIC "-//W3C//DTD SVG 1.1//EN" "http://www.w3.org/Graphics/SVG/1.1/DTD/svg11.dtd"><svg t="1764994874785" class="icon" viewBox="0 0 1024 1024" version="1.1" xmlns="http://www.w3.org/2000/svg" p-id="16437" xmlns:xlink="http://www.w3.org/1999/xlink" width="200" height="200"><path d="M601.088 198.656a20.48 20.48 0 1 0 40.96 0 20.48 20.48 0 1 0-40.96 0zM777.728 497.664c-3.072-1.024-3.584-5.12-1.024-6.656 44.032-26.112 73.728-74.24 73.728-128.512 0-74.24-54.272-135.68-124.928-147.456-9.728-1.536-18.944 6.144-18.944 15.872 0 7.68 5.632 14.336 13.312 15.872 55.808 9.216 98.304 57.344 98.304 115.712 0 56.32-39.424 102.912-92.16 114.688-10.752 2.56-18.432 11.264-18.432 22.528v0.512c0 10.24 8.192 18.944 18.432 19.968 114.176 12.8 202.752 109.568 202.752 226.816 0 9.728-0.512 19.968-2.048 29.184 0 2.048-2.048 3.584-4.096 3.584h-18.432c-8.704 0-15.36 7.168-15.36 15.36v0.512c0 9.216 7.68 16.384 16.896 16.384h38.912c4.608 0 9.216-3.584 10.24-8.192 4.096-18.432 6.144-37.376 6.144-56.832 0-117.76-77.312-216.576-183.296-249.344zM317.44 519.68c10.24-1.024 18.432-9.728 18.432-19.968v-0.512c0-11.264-7.68-19.968-18.432-22.528-52.736-11.776-92.16-58.368-92.16-114.688 0-58.368 42.496-106.496 98.304-115.712 7.68-1.536 13.312-8.192 13.312-15.872 0-9.728-9.216-17.408-18.944-15.872-70.656 11.776-124.928 73.216-124.928 147.456 0 54.784 29.696 102.912 73.728 129.024 2.56 2.048 2.048 5.632-1.024 6.656C159.232 530.432 82.432 629.248 82.944 746.496c0 19.456 2.048 38.4 6.144 56.832 1.024 4.608 5.12 8.192 10.24 8.192h38.4c9.216 0 16.896-7.168 16.896-16.384v-0.512c0-8.192-6.656-15.36-15.36-15.36H120.32c-2.048 0-3.584-1.536-3.584-3.072-1.536-9.728-2.048-19.456-2.048-29.696 0-117.248 88.576-214.016 202.752-226.816z" p-id="16438" fill="#1296db"></path><path d="M615.424 506.368c-3.072-1.024-3.072-4.608-0.512-6.144 60.928-34.816 100.864-103.424 94.72-179.712-2.56-34.304-14.848-66.048-33.792-93.184h-0.512c-3.584-5.12-9.728-8.192-16.384-8.192-11.264 0-20.48 9.216-20.48 20.48 0 5.632 2.048 10.24 5.632 14.336 14.336 21.504 23.04 46.592 25.088 73.216 4.608 85.504-63.488 156.672-148.48 156.672-81.92 0-148.48-66.56-148.48-148.48-0.512-84.48 72.704-153.6 159.232-147.456 8.192 0.512 16.384 2.048 24.576 3.584 2.048 1.024 4.608 1.536 7.168 1.536 11.264 0 20.48-9.216 20.48-20.48 0-9.216-6.144-17.408-14.848-19.456v-0.512c-11.264-3.072-22.528-4.608-34.304-5.632-110.592-8.192-203.264 79.872-203.264 188.928 0 69.632 37.888 130.56 94.208 163.328 3.072 2.048 2.56 6.144-1.024 7.168-135.168 40.96-233.984 166.4-233.984 315.392 0 19.968 1.536 39.424 5.12 58.88 2.56 13.824 14.336 23.552 28.16 23.552h82.432c1.536 0.512 3.072 0.512 4.608 0.512 11.264 0 20.48-9.216 20.48-20.48s-8.704-19.968-19.968-20.48v-0.512h-66.56c-6.144 0-11.264-4.608-11.776-10.752a308.544 308.544 0 0 1-1.536-30.72c0-159.232 129.536-288.768 288.768-288.768 159.232 0 288.768 129.536 288.768 288.768 0 9.728-0.512 19.456-1.536 28.672-0.512 7.168-6.656 12.8-13.824 12.8H492.544v0.512c-11.264 0-20.48 9.216-20.48 20.48s9.216 20.48 20.48 20.48c1.536 0 3.072 0 4.608-0.512h320c13.312 0 25.088-9.728 27.648-23.04 3.584-19.456 5.12-38.912 5.12-59.392 0-148.48-98.816-274.432-234.496-315.392z" p-id="16439" fill="#1296db"></path><path d="M432.128 863.744h-59.904c-11.264 0-20.48 9.216-20.48 20.48s9.216 20.48 20.48 20.48h59.904c11.264 0 20.48-9.216 20.48-20.48s-9.216-20.48-20.48-20.48z" p-id="16440" fill="#1296db"></path></svg>