<?xml version="1.0" standalone="no"?><!DOCTYPE svg PUBLIC "-//W3C//DTD SVG 1.1//EN" "http://www.w3.org/Graphics/SVG/1.1/DTD/svg11.dtd"><svg t="1764994785321" class="icon" viewBox="0 0 1024 1024" version="1.1" xmlns="http://www.w3.org/2000/svg" p-id="13463" xmlns:xlink="http://www.w3.org/1999/xlink" width="200" height="200"><path d="M899.505231 886.409846a18.550154 18.550154 0 0 1-12.130462-4.844308L627.593846 675.190154c-16.994462 7.286154-31.566769 12.150154-48.561231 12.150154-97.122462 9.708308-186.939077-60.711385-196.667077-157.814154-2.422154-21.858462 0-43.716923 4.864-63.133539 2.422154-7.286154 7.286154-12.130462 14.572308-14.572307 7.286154-2.422154 14.572308 0 19.416616 2.441846l106.830769 87.394461 55.847384-67.977846-106.830769-87.394461c-4.864-4.864-7.286154-12.150154-7.286154-19.436308s4.844308-12.130462 12.130462-16.994462c19.436308-9.708308 41.275077-16.994462 60.711384-19.416615 97.102769-9.708308 186.939077 60.691692 196.647385 157.814154 2.422154 16.994462 2.422154 33.988923-2.422154 50.983385l259.780923 206.375384c4.844308 2.422154 7.286154 9.708308 7.286154 14.572308 0 4.844308 0 12.130462-4.864 14.572308l-80.108308 101.947076c-7.286154 7.286154-12.150154 9.708308-19.436307 9.708308zM630.016 631.492923c4.864 0 9.708308 2.422154 12.150154 4.864l252.494769 201.511385 55.827692-67.977846-252.494769-201.531077c-7.286154-4.844308-9.708308-14.572308-7.286154-21.858462a111.281231 111.281231 0 0 0 2.441846-48.541538c-7.286154-75.264-75.264-128.669538-150.528-121.383385-4.864 0-9.728 2.422154-14.572307 2.422154l94.680615 75.264c4.864 2.422154 7.286154 9.708308 7.286154 14.572308 0 4.844308 0 12.130462-4.864 14.572307l-80.108308 101.947077c-2.422154 4.864-9.708308 7.286154-14.572307 7.286154-4.844308 0-12.130462 0-14.572308-4.844308l-94.680615-75.264v14.572308c7.286154 75.264 75.264 128.669538 150.528 121.383385a146.471385 146.471385 0 0 0 46.139076-14.572308c7.286154 0 9.708308-2.422154 12.130462-2.422154z" fill="#1296db" p-id="13464"></path><path d="M630.016 631.492923c4.864 0 9.708308 2.422154 12.150154 4.864l252.494769 201.511385 55.827692-67.977846-252.494769-201.531077c-7.286154-4.844308-9.708308-14.572308-7.286154-21.858462a111.281231 111.281231 0 0 0 2.441846-48.541538c-7.286154-75.264-75.264-128.669538-150.528-121.383385-4.864 0-9.728 2.422154-14.572307 2.422154l94.680615 75.264c4.864 2.422154 7.286154 9.708308 7.286154 14.572308 0 4.844308 0 12.130462-4.864 14.572307l-80.108308 101.947077c-2.422154 4.864-9.708308 7.286154-14.572307 7.286154-4.844308 0-12.130462 0-14.572308-4.844308l-94.680615-75.264v14.572308c7.286154 75.264 75.264 128.669538 150.528 121.383385a146.471385 146.471385 0 0 0 46.139076-14.572308c7.286154 0 9.708308-2.422154 12.130462-2.422154z" fill="#1296db" p-id="13465"></path><path d="M630.016 1017.521231H413.932308c-9.708308 0-19.416615-7.286154-21.858462-19.416616l-9.708308-99.544615c-9.708308-2.422154-19.416615-7.286154-29.124923-12.150154l-77.686153 63.133539c-7.286154 7.286154-19.436308 7.286154-29.144616-2.422154l-160.236308-160.236308c-7.286154-7.286154-7.286154-19.436308 0-29.144615l65.555693-77.686154c-4.864-9.708308-7.286154-19.436308-12.150154-29.144616l-99.524923-9.708307c-9.728 0-19.436308-9.708308-19.436308-21.858462V393.590154c0-9.728 7.286154-19.436308 19.436308-21.858462l99.524923-9.708307c2.441846-9.708308 7.286154-19.436308 12.150154-29.144616l-63.133539-77.686154c-7.286154-7.286154-7.286154-19.416615 2.441846-29.144615l160.236308-160.236308c7.286154-7.286154 19.416615-7.286154 29.144616 0l77.686153 65.575385c9.708308-4.864 19.416615-7.286154 29.124923-12.150154l9.708308-99.544615c0-9.708308 9.708308-19.416615 21.858462-19.416616h225.792c9.708308 0 19.416615 7.286154 21.858461 19.416616l9.708308 99.544615c9.708308 2.422154 19.416615 7.286154 29.144615 12.130462l77.666462-63.113847c9.728-7.286154 21.858462-7.286154 29.144615 2.422154l174.808616 199.089231c4.844308 4.844308 7.286154 12.130462 4.844307 19.416615-2.422154 7.286154-7.286154 12.150154-14.572307 14.572308-143.241846 41.275077-182.075077 53.405538-194.225231 55.827692-14.572308 4.864-24.280615-4.844308-58.269539-38.83323l-12.130461-12.150154c-94.680615-72.822154-240.364308-72.822154-342.331077 2.441846-58.269538 41.275077-89.836308 109.252923-89.836308 191.803077-2.422154 148.086154 109.252923 259.780923 247.650462 259.780923h7.286154c7.286154 0 16.994462 4.844308 19.416615 12.130462l94.680615 213.661538c2.441846 7.286154 2.441846 14.572308-2.422153 19.416615-2.422154 7.286154-9.708308 9.708308-16.994462 9.708308z m-196.647385-41.275077h165.080616l-75.264-169.944616c-157.814154-4.864-286.483692-133.533538-286.483693-293.769846 0-94.700308 38.852923-174.808615 106.83077-225.792 116.539077-87.414154 281.619692-87.414154 393.314461-2.441846l14.572308 14.572308c7.286154 7.286154 19.416615 19.436308 26.702769 24.280615 26.702769-7.286154 106.830769-31.566769 152.950154-46.119384l-140.8-160.256-72.861538 60.711384c-7.286154 4.844308-14.572308 7.286154-21.858462 2.422154-14.552615-7.286154-31.547077-14.572308-48.541538-19.416615-7.286154-2.441846-14.572308-9.708308-14.572308-16.994462l-7.286154-94.700308H435.790769l-9.708307 94.700308c0 7.286154-7.286154 14.572308-14.572308 16.994462-16.994462 4.844308-33.988923 12.130462-48.561231 19.416615-7.286154 4.864-16.994462 2.422154-21.858461-2.422154L268.288 116.775385l-133.533538 133.533538 60.691692 72.861539c4.864 7.266462 7.286154 14.552615 2.422154 21.838769-7.286154 14.572308-14.572308 31.566769-19.416616 48.561231-2.422154 7.286154-9.708308 14.572308-16.994461 14.572307l-94.680616 7.286154v189.361231l94.680616 9.708308c7.286154 0 14.572308 7.286154 16.994461 14.572307 4.864 16.994462 12.150154 33.988923 19.416616 48.561231 4.864 7.286154 2.441846 16.994462-2.422154 21.858462l-60.691692 72.822153 133.513846 133.513847 72.861538-60.672c7.286154-4.864 14.572308-7.286154 21.858462-2.441847 16.974769 7.286154 31.547077 14.572308 48.541538 19.436308 7.286154 2.422154 14.572308 9.708308 14.572308 16.994462l7.286154 97.102769z" fill="#1296db" p-id="13466"></path></svg>