<?xml version="1.0" standalone="no"?><!DOCTYPE svg PUBLIC "-//W3C//DTD SVG 1.1//EN" "http://www.w3.org/Graphics/SVG/1.1/DTD/svg11.dtd"><svg t="1765001976963" class="icon" viewBox="0 0 1024 1024" version="1.1" xmlns="http://www.w3.org/2000/svg" p-id="19539" xmlns:xlink="http://www.w3.org/1999/xlink" width="200" height="200"><path d="M304.2304 262.7584h116.3264L403.968 578.56h-83.0464l-16.6912-315.8016zM362.3936 644.9152c32.1536 0 58.1632 26.0096 58.1632 58.1632s-26.0096 58.1632-58.1632 58.1632-58.1632-26.0096-58.1632-58.1632c0-32.0512 26.112-58.1632 58.1632-58.1632zM678.1952 312.5248h182.784c13.7216 0 24.8832 11.1616 24.8832 24.8832s-11.1616 24.8832-24.8832 24.8832H678.1952c-13.7216 0-24.8832-11.1616-24.8832-24.8832s11.1616-24.8832 24.8832-24.8832zM678.1952 495.4112h182.784c13.7216 0 24.8832 11.1616 24.8832 24.8832s-11.1616 24.8832-24.8832 24.8832H678.1952c-13.7216 0-24.8832-11.1616-24.8832-24.8832s11.1616-24.8832 24.8832-24.8832zM678.1952 661.6064h182.784c13.7216 0 24.8832 11.1616 24.8832 24.8832s-11.1616 24.8832-24.8832 24.8832H678.1952c-13.7216 0-24.8832-11.1616-24.8832-24.8832s11.1616-24.8832 24.8832-24.8832z" fill="#1296db" p-id="19540"></path><path d="M969.0112 179.6096v664.7808H54.9888V179.6096h914.0224m49.8688-49.8688H5.12v764.5184h1013.76V129.7408z" fill="#1296db" p-id="19541"></path></svg>